<svg width="68" height="68" viewBox="0 0 68 68" fill="none" xmlns="http://www.w3.org/2000/svg">
<g id="Arrow" filter="url(#filter0_d_25_579)">
<path d="M26 50C20.3431 50 17.5147 50 15.7574 48.2426C14 46.4853 14 43.6569 14 38L14 22C14 16.3431 14 13.5147 15.7574 11.7574C17.5147 10 20.3431 10 26 10H42C47.6569 10 50.4853 10 52.2426 11.7574C54 13.5147 54 16.3431 54 22L54 38C54 43.6569 54 46.4853 52.2426 48.2426C50.4853 50 47.6569 50 42 50H26Z" fill="white" shape-rendering="crispEdges"/>
<path id="arrow" fill-rule="evenodd" clip-rule="evenodd" d="M32.7524 29.7831L37.2502 25.8391C37.5831 25.5468 37.5831 25.0754 37.2502 24.7831C37.0916 24.6435 36.8752 24.565 36.6496 24.565C36.4239 24.565 36.2075 24.6435 36.0489 24.7831L30.9504 29.2544C30.6165 29.5463 30.6165 30.0184 30.9504 30.3104L36.0487 34.7816C36.2075 34.9212 36.4239 34.9998 36.6496 34.9998C36.8752 34.9998 37.0916 34.9212 37.2504 34.7816C37.5831 34.4893 37.5831 34.0178 37.25 33.7256L32.7524 29.7831Z" fill="#C5C5C5"/>
</g>
<defs>
<filter id="filter0_d_25_579" x="0" y="0" width="68" height="68" filterUnits="userSpaceOnUse" color-interpolation-filters="sRGB">
<feFlood flood-opacity="0" result="BackgroundImageFix"/>
<feColorMatrix in="SourceAlpha" type="matrix" values="0 0 0 0 0 0 0 0 0 0 0 0 0 0 0 0 0 0 127 0" result="hardAlpha"/>
<feOffset dy="4"/>
<feGaussianBlur stdDeviation="7"/>
<feComposite in2="hardAlpha" operator="out"/>
<feColorMatrix type="matrix" values="0 0 0 0 0 0 0 0 0 0 0 0 0 0 0 0 0 0 0.1 0"/>
<feBlend mode="normal" in2="BackgroundImageFix" result="effect1_dropShadow_25_579"/>
<feBlend mode="normal" in="SourceGraphic" in2="effect1_dropShadow_25_579" result="shape"/>
</filter>
</defs>
</svg>
