<svg width="68" height="68" viewBox="0 0 68 68" fill="none" xmlns="http://www.w3.org/2000/svg">
<g id="Arrow" filter="url(#filter0_d_25_592)">
<path d="M42 50C47.6569 50 50.4853 50 52.2426 48.2426C54 46.4853 54 43.6569 54 38L54 22C54 16.3431 54 13.5147 52.2426 11.7574C50.4853 10 47.6569 10 42 10H26C20.3431 10 17.5147 10 15.7574 11.7574C14 13.5147 14 16.3431 14 22L14 38C14 43.6569 14 46.4853 15.7574 48.2426C17.5147 50 20.3431 50 26 50H42Z" fill="white" shape-rendering="crispEdges"/>
<path id="arrow" fill-rule="evenodd" clip-rule="evenodd" d="M35.2476 29.7831L30.7498 25.8391C30.4169 25.5468 30.4169 25.0754 30.7498 24.7831C30.9084 24.6435 31.1248 24.565 31.3504 24.565C31.5761 24.565 31.7925 24.6435 31.9511 24.7831L37.0496 29.2544C37.3835 29.5463 37.3835 30.0184 37.0496 30.3104L31.9513 34.7816C31.7925 34.9212 31.5761 34.9998 31.3504 34.9998C31.1248 34.9998 30.9084 34.9212 30.7496 34.7816C30.4169 34.4893 30.4169 34.0178 30.75 33.7256L35.2476 29.7831Z" fill="#2F80ED"/>
</g>
<defs>
<filter id="filter0_d_25_592" x="0" y="0" width="68" height="68" filterUnits="userSpaceOnUse" color-interpolation-filters="sRGB">
<feFlood flood-opacity="0" result="BackgroundImageFix"/>
<feColorMatrix in="SourceAlpha" type="matrix" values="0 0 0 0 0 0 0 0 0 0 0 0 0 0 0 0 0 0 127 0" result="hardAlpha"/>
<feOffset dy="4"/>
<feGaussianBlur stdDeviation="7"/>
<feComposite in2="hardAlpha" operator="out"/>
<feColorMatrix type="matrix" values="0 0 0 0 0 0 0 0 0 0 0 0 0 0 0 0 0 0 0.1 0"/>
<feBlend mode="normal" in2="BackgroundImageFix" result="effect1_dropShadow_25_592"/>
<feBlend mode="normal" in="SourceGraphic" in2="effect1_dropShadow_25_592" result="shape"/>
</filter>
</defs>
</svg>
