<svg width="20" height="21" viewBox="0 0 20 21" fill="none" xmlns="http://www.w3.org/2000/svg">
<g id="eye 1">
<g id="Group">
<path id="Vector" d="M12.9833 10.5C12.9833 12.15 11.65 13.4833 10 13.4833C8.35001 13.4833 7.01668 12.15 7.01668 10.5C7.01668 8.85 8.35001 7.51666 10 7.51666C11.65 7.51666 12.9833 8.85 12.9833 10.5Z" stroke="#4F4F4F" stroke-width="1.5" stroke-linecap="round" stroke-linejoin="round"/>
<path id="Vector_2" d="M10 17.3917C12.9417 17.3917 15.6833 15.6583 17.5917 12.6583C18.3417 11.4833 18.3417 9.50834 17.5917 8.33334C15.6833 5.33334 12.9417 3.60001 10 3.60001C7.05834 3.60001 4.31667 5.33334 2.40834 8.33334C1.65834 9.50834 1.65834 11.4833 2.40834 12.6583C4.31667 15.6583 7.05834 17.3917 10 17.3917Z" stroke="#4F4F4F" stroke-width="1.5" stroke-linecap="round" stroke-linejoin="round"/>
</g>
</g>
</svg>
