<svg width="20" height="20" viewBox="0 0 20 20" fill="none" xmlns="http://www.w3.org/2000/svg">
<g id="location 1">
<g id="Group">
<path id="Vector" d="M9.9999 11.1916C10.3413 11.1916 10.6794 11.1243 10.9949 10.9937C11.3103 10.863 11.5969 10.6715 11.8384 10.4301C12.0798 10.1886 12.2713 9.902 12.402 9.58655C12.5327 9.27111 12.5999 8.93301 12.5999 8.59158C12.5999 8.25014 12.5327 7.91205 12.402 7.5966C12.2713 7.28115 12.0798 6.99453 11.8384 6.7531C11.5969 6.51167 11.3103 6.32015 10.9949 6.18949C10.6794 6.05883 10.3413 5.99158 9.9999 5.99158C9.31034 5.99158 8.64902 6.2655 8.16142 6.7531C7.67383 7.24069 7.3999 7.90201 7.3999 8.59158C7.3999 9.28114 7.67383 9.94246 8.16142 10.4301C8.64902 10.9177 9.31034 11.1916 9.9999 11.1916V11.1916Z" stroke="#828282" stroke-width="1.5"/>
<path id="Vector_2" d="M3.01675 7.07496C4.65842 -0.141706 15.3501 -0.133372 16.9834 7.08329C17.9417 11.3166 15.3084 14.9 13.0001 17.1166C12.1935 17.8946 11.1165 18.3293 9.99592 18.3293C8.87529 18.3293 7.79835 17.8946 6.99175 17.1166C4.69175 14.9 2.05842 11.3083 3.01675 7.07496V7.07496Z" stroke="#828282" stroke-width="1.5"/>
</g>
</g>
</svg>
